<mxfile host="app.diagrams.net" agent="Mozilla/5.0 (Windows NT 10.0; Win64; x64; rv:130.0) Gecko/20100101 Firefox/130.0" version="24.7.16">
  <diagram name="Page-1" id="Tr-_pZ4dQ33cYt0RN8DX">
    <mxGraphModel dx="1593" dy="878" grid="1" gridSize="10" guides="1" tooltips="1" connect="1" arrows="1" fold="1" page="1" pageScale="1" pageWidth="827" pageHeight="1169" math="0" shadow="0">
      <root>
        <mxCell id="0" />
        <mxCell id="1" parent="0" />
        <mxCell id="3" value="Contrôle manuel par le plus grand nombre de personnes pour la stimulation de motricité " style="whiteSpace=wrap;strokeWidth=2;" parent="1" vertex="1">
          <mxGeometry x="40" y="320" width="170" height="90" as="geometry" />
        </mxCell>
        <mxCell id="4O0FOi0MMqLt7hbfBtKS-17" value="Interfaces de contrôle interchangeables pour différentes situations de handicaps" style="whiteSpace=wrap;strokeWidth=2;" parent="1" vertex="1">
          <mxGeometry x="320" y="160" width="160" height="90" as="geometry" />
        </mxCell>
        <mxCell id="4O0FOi0MMqLt7hbfBtKS-19" value="Protocole de communication et interface de connexion identique pour chaque contrôleur" style="whiteSpace=wrap;strokeWidth=2;" parent="1" vertex="1">
          <mxGeometry x="600" y="110" width="160" height="90" as="geometry" />
        </mxCell>
        <mxCell id="4O0FOi0MMqLt7hbfBtKS-21" value="USB" style="whiteSpace=wrap;strokeWidth=2;" parent="1" vertex="1">
          <mxGeometry x="880" y="120" width="160" height="50" as="geometry" />
        </mxCell>
        <mxCell id="4O0FOi0MMqLt7hbfBtKS-23" value="Manette avec 3 boutons" style="whiteSpace=wrap;strokeWidth=2;" parent="1" vertex="1">
          <mxGeometry x="600" y="230" width="160" height="50" as="geometry" />
        </mxCell>
        <mxCell id="4O0FOi0MMqLt7hbfBtKS-25" value="Plateau de jeu de taille adaptée, large plage d&#39;accélération du joueur, fiabilité de déplacement des bumpers " style="whiteSpace=wrap;strokeWidth=2;" parent="1" vertex="1">
          <mxGeometry x="320" y="460" width="160" height="90" as="geometry" />
        </mxCell>
        <mxCell id="4O0FOi0MMqLt7hbfBtKS-27" value="Estimation de la position et de la vitesse de la balle" style="whiteSpace=wrap;strokeWidth=2;" parent="1" vertex="1">
          <mxGeometry x="320" y="740" width="160" height="90" as="geometry" />
        </mxCell>
        <mxCell id="4O0FOi0MMqLt7hbfBtKS-29" value="Contrôle automatique par un programme informatique " style="whiteSpace=wrap;strokeWidth=2;" parent="1" vertex="1">
          <mxGeometry x="40" y="650" width="160" height="90" as="geometry" />
        </mxCell>
        <mxCell id="4O0FOi0MMqLt7hbfBtKS-32" value="Algorithme de déplacement automatique avec difficultés réglables" style="whiteSpace=wrap;strokeWidth=2;" parent="1" vertex="1">
          <mxGeometry x="320" y="880" width="160" height="90" as="geometry" />
        </mxCell>
        <mxCell id="4O0FOi0MMqLt7hbfBtKS-34" value="2 planches rigides, autres pièces imprimées en 3D" style="whiteSpace=wrap;strokeWidth=2;" parent="1" vertex="1">
          <mxGeometry x="600" y="330" width="160" height="60" as="geometry" />
        </mxCell>
        <mxCell id="4O0FOi0MMqLt7hbfBtKS-36" value="Détection de présence des balles dans les buts" style="whiteSpace=wrap;strokeWidth=2;" parent="1" vertex="1">
          <mxGeometry x="600" y="420" width="160" height="60" as="geometry" />
        </mxCell>
        <mxCell id="4O0FOi0MMqLt7hbfBtKS-38" value="Calibration automatique des bumpers" style="whiteSpace=wrap;strokeWidth=2;" parent="1" vertex="1">
          <mxGeometry x="600" y="520" width="160" height="50" as="geometry" />
        </mxCell>
        <mxCell id="4O0FOi0MMqLt7hbfBtKS-40" value="Puissance de tir adaptée " style="whiteSpace=wrap;strokeWidth=2;" parent="1" vertex="1">
          <mxGeometry x="600" y="600" width="160" height="40" as="geometry" />
        </mxCell>
        <mxCell id="4O0FOi0MMqLt7hbfBtKS-42" value="Filtrage" style="whiteSpace=wrap;strokeWidth=2;" parent="1" vertex="1">
          <mxGeometry x="600" y="720" width="160" height="50" as="geometry" />
        </mxCell>
        <mxCell id="4O0FOi0MMqLt7hbfBtKS-44" value="Modèle d&#39;évolution du système + Kalman et / ou particule" style="whiteSpace=wrap;strokeWidth=2;" parent="1" vertex="1">
          <mxGeometry x="880" y="700" width="160" height="70" as="geometry" />
        </mxCell>
        <mxCell id="4O0FOi0MMqLt7hbfBtKS-46" value="Capteurs " style="whiteSpace=wrap;strokeWidth=2;" parent="1" vertex="1">
          <mxGeometry x="600" y="810" width="160" height="50" as="geometry" />
        </mxCell>
        <mxCell id="4O0FOi0MMqLt7hbfBtKS-48" value="Au moins 2 cameras et vision par ordinateur " style="whiteSpace=wrap;strokeWidth=2;" parent="1" vertex="1">
          <mxGeometry x="880" y="810" width="160" height="60" as="geometry" />
        </mxCell>
        <mxCell id="4O0FOi0MMqLt7hbfBtKS-51" value="" style="edgeStyle=elbowEdgeStyle;elbow=horizontal;endArrow=classic;html=1;curved=0;rounded=0;endSize=8;startSize=8;exitX=1;exitY=0.5;exitDx=0;exitDy=0;entryX=0;entryY=0.5;entryDx=0;entryDy=0;" parent="1" source="4O0FOi0MMqLt7hbfBtKS-29" target="4O0FOi0MMqLt7hbfBtKS-25" edge="1">
          <mxGeometry width="50" height="50" relative="1" as="geometry">
            <mxPoint x="330" y="780" as="sourcePoint" />
            <mxPoint x="380" y="730" as="targetPoint" />
          </mxGeometry>
        </mxCell>
        <mxCell id="4O0FOi0MMqLt7hbfBtKS-52" value="" style="edgeStyle=elbowEdgeStyle;elbow=horizontal;endArrow=classic;html=1;curved=0;rounded=0;endSize=8;startSize=8;exitX=1;exitY=0.5;exitDx=0;exitDy=0;entryX=0;entryY=0.5;entryDx=0;entryDy=0;" parent="1" source="4O0FOi0MMqLt7hbfBtKS-29" target="4O0FOi0MMqLt7hbfBtKS-27" edge="1">
          <mxGeometry width="50" height="50" relative="1" as="geometry">
            <mxPoint x="210" y="865" as="sourcePoint" />
            <mxPoint x="330" y="525" as="targetPoint" />
          </mxGeometry>
        </mxCell>
        <mxCell id="4O0FOi0MMqLt7hbfBtKS-53" value="" style="edgeStyle=elbowEdgeStyle;elbow=horizontal;endArrow=classic;html=1;curved=0;rounded=0;endSize=8;startSize=8;exitX=1;exitY=0.5;exitDx=0;exitDy=0;" parent="1" source="4O0FOi0MMqLt7hbfBtKS-29" target="4O0FOi0MMqLt7hbfBtKS-32" edge="1">
          <mxGeometry width="50" height="50" relative="1" as="geometry">
            <mxPoint x="200" y="860" as="sourcePoint" />
            <mxPoint x="340" y="540" as="targetPoint" />
          </mxGeometry>
        </mxCell>
        <mxCell id="4O0FOi0MMqLt7hbfBtKS-54" value="" style="edgeStyle=elbowEdgeStyle;elbow=horizontal;endArrow=classic;html=1;curved=0;rounded=0;endSize=8;startSize=8;entryX=0;entryY=0.5;entryDx=0;entryDy=0;exitX=1;exitY=0.5;exitDx=0;exitDy=0;" parent="1" source="3" target="4O0FOi0MMqLt7hbfBtKS-17" edge="1">
          <mxGeometry width="50" height="50" relative="1" as="geometry">
            <mxPoint x="210" y="630" as="sourcePoint" />
            <mxPoint x="260" y="580" as="targetPoint" />
          </mxGeometry>
        </mxCell>
        <mxCell id="4O0FOi0MMqLt7hbfBtKS-55" value="" style="edgeStyle=elbowEdgeStyle;elbow=horizontal;endArrow=classic;html=1;curved=0;rounded=0;endSize=8;startSize=8;exitX=1;exitY=0.5;exitDx=0;exitDy=0;entryX=0;entryY=0.25;entryDx=0;entryDy=0;" parent="1" source="3" target="4O0FOi0MMqLt7hbfBtKS-25" edge="1">
          <mxGeometry width="50" height="50" relative="1" as="geometry">
            <mxPoint x="230" y="885" as="sourcePoint" />
            <mxPoint x="350" y="545" as="targetPoint" />
          </mxGeometry>
        </mxCell>
        <mxCell id="4O0FOi0MMqLt7hbfBtKS-56" style="edgeStyle=orthogonalEdgeStyle;rounded=0;orthogonalLoop=1;jettySize=auto;html=1;exitX=0;exitY=0.5;exitDx=0;exitDy=0;entryX=0;entryY=0.75;entryDx=0;entryDy=0;" parent="1" source="4O0FOi0MMqLt7hbfBtKS-25" target="4O0FOi0MMqLt7hbfBtKS-25" edge="1">
          <mxGeometry relative="1" as="geometry" />
        </mxCell>
        <mxCell id="4O0FOi0MMqLt7hbfBtKS-57" value="" style="edgeStyle=elbowEdgeStyle;elbow=horizontal;endArrow=classic;html=1;curved=0;rounded=0;endSize=8;startSize=8;entryX=0;entryY=0.5;entryDx=0;entryDy=0;exitX=1;exitY=0.5;exitDx=0;exitDy=0;" parent="1" source="4O0FOi0MMqLt7hbfBtKS-17" target="4O0FOi0MMqLt7hbfBtKS-19" edge="1">
          <mxGeometry width="50" height="50" relative="1" as="geometry">
            <mxPoint x="210" y="630" as="sourcePoint" />
            <mxPoint x="260" y="580" as="targetPoint" />
          </mxGeometry>
        </mxCell>
        <mxCell id="4O0FOi0MMqLt7hbfBtKS-59" value="" style="edgeStyle=elbowEdgeStyle;elbow=horizontal;endArrow=classic;html=1;curved=0;rounded=0;endSize=8;startSize=8;entryX=0;entryY=0.5;entryDx=0;entryDy=0;exitX=1;exitY=0.5;exitDx=0;exitDy=0;" parent="1" source="4O0FOi0MMqLt7hbfBtKS-17" target="4O0FOi0MMqLt7hbfBtKS-23" edge="1">
          <mxGeometry width="50" height="50" relative="1" as="geometry">
            <mxPoint x="480" y="200" as="sourcePoint" />
            <mxPoint x="610" y="165" as="targetPoint" />
          </mxGeometry>
        </mxCell>
        <mxCell id="4O0FOi0MMqLt7hbfBtKS-60" value="" style="edgeStyle=elbowEdgeStyle;elbow=horizontal;endArrow=classic;html=1;curved=0;rounded=0;endSize=8;startSize=8;entryX=0;entryY=0.5;entryDx=0;entryDy=0;exitX=0.995;exitY=0.38;exitDx=0;exitDy=0;exitPerimeter=0;" parent="1" target="4O0FOi0MMqLt7hbfBtKS-34" edge="1" source="4O0FOi0MMqLt7hbfBtKS-25">
          <mxGeometry width="50" height="50" relative="1" as="geometry">
            <mxPoint x="480" y="520" as="sourcePoint" />
            <mxPoint x="600" y="470" as="targetPoint" />
          </mxGeometry>
        </mxCell>
        <mxCell id="4O0FOi0MMqLt7hbfBtKS-61" value="" style="edgeStyle=elbowEdgeStyle;elbow=horizontal;endArrow=classic;html=1;curved=0;rounded=0;endSize=8;startSize=8;entryX=0;entryY=0.5;entryDx=0;entryDy=0;exitX=1.009;exitY=0.393;exitDx=0;exitDy=0;exitPerimeter=0;" parent="1" target="4O0FOi0MMqLt7hbfBtKS-36" edge="1" source="4O0FOi0MMqLt7hbfBtKS-25">
          <mxGeometry width="50" height="50" relative="1" as="geometry">
            <mxPoint x="480" y="520" as="sourcePoint" />
            <mxPoint x="600" y="470" as="targetPoint" />
          </mxGeometry>
        </mxCell>
        <mxCell id="4O0FOi0MMqLt7hbfBtKS-62" value="" style="edgeStyle=elbowEdgeStyle;elbow=horizontal;endArrow=classic;html=1;curved=0;rounded=0;endSize=8;startSize=8;entryX=0;entryY=0.5;entryDx=0;entryDy=0;exitX=0.988;exitY=0.393;exitDx=0;exitDy=0;exitPerimeter=0;" parent="1" target="4O0FOi0MMqLt7hbfBtKS-38" edge="1" source="4O0FOi0MMqLt7hbfBtKS-25">
          <mxGeometry width="50" height="50" relative="1" as="geometry">
            <mxPoint x="480" y="520" as="sourcePoint" />
            <mxPoint x="600" y="470" as="targetPoint" />
          </mxGeometry>
        </mxCell>
        <mxCell id="4O0FOi0MMqLt7hbfBtKS-63" value="" style="edgeStyle=elbowEdgeStyle;elbow=horizontal;endArrow=classic;html=1;curved=0;rounded=0;endSize=8;startSize=8;entryX=0;entryY=0.5;entryDx=0;entryDy=0;exitX=1.009;exitY=0.393;exitDx=0;exitDy=0;exitPerimeter=0;" parent="1" target="4O0FOi0MMqLt7hbfBtKS-40" edge="1" source="4O0FOi0MMqLt7hbfBtKS-25">
          <mxGeometry width="50" height="50" relative="1" as="geometry">
            <mxPoint x="480" y="520" as="sourcePoint" />
            <mxPoint x="600" y="470" as="targetPoint" />
          </mxGeometry>
        </mxCell>
        <mxCell id="4O0FOi0MMqLt7hbfBtKS-64" value="" style="edgeStyle=elbowEdgeStyle;elbow=horizontal;endArrow=classic;html=1;curved=0;rounded=0;endSize=8;startSize=8;entryX=0;entryY=0.5;entryDx=0;entryDy=0;exitX=1;exitY=0.5;exitDx=0;exitDy=0;" parent="1" edge="1">
          <mxGeometry width="50" height="50" relative="1" as="geometry">
            <mxPoint x="480" y="790" as="sourcePoint" />
            <mxPoint x="600" y="740" as="targetPoint" />
          </mxGeometry>
        </mxCell>
        <mxCell id="4O0FOi0MMqLt7hbfBtKS-65" value="" style="edgeStyle=elbowEdgeStyle;elbow=horizontal;endArrow=classic;html=1;curved=0;rounded=0;endSize=8;startSize=8;entryX=0;entryY=0.5;entryDx=0;entryDy=0;exitX=1;exitY=0.5;exitDx=0;exitDy=0;" parent="1" target="4O0FOi0MMqLt7hbfBtKS-46" edge="1">
          <mxGeometry width="50" height="50" relative="1" as="geometry">
            <mxPoint x="480" y="790" as="sourcePoint" />
            <mxPoint x="600" y="740" as="targetPoint" />
          </mxGeometry>
        </mxCell>
        <mxCell id="4O0FOi0MMqLt7hbfBtKS-66" value="" style="endArrow=classic;html=1;rounded=0;entryX=0;entryY=0.5;entryDx=0;entryDy=0;exitX=1.024;exitY=0.392;exitDx=0;exitDy=0;exitPerimeter=0;" parent="1" source="4O0FOi0MMqLt7hbfBtKS-19" target="4O0FOi0MMqLt7hbfBtKS-21" edge="1">
          <mxGeometry width="50" height="50" relative="1" as="geometry">
            <mxPoint x="210" y="500" as="sourcePoint" />
            <mxPoint x="260" y="450" as="targetPoint" />
          </mxGeometry>
        </mxCell>
        <mxCell id="4O0FOi0MMqLt7hbfBtKS-67" value="" style="endArrow=classic;html=1;rounded=0;entryX=0;entryY=0.5;entryDx=0;entryDy=0;exitX=1.024;exitY=0.392;exitDx=0;exitDy=0;exitPerimeter=0;" parent="1" edge="1">
          <mxGeometry width="50" height="50" relative="1" as="geometry">
            <mxPoint x="764" y="740" as="sourcePoint" />
            <mxPoint x="880" y="740" as="targetPoint" />
          </mxGeometry>
        </mxCell>
        <mxCell id="4O0FOi0MMqLt7hbfBtKS-68" value="" style="endArrow=classic;html=1;rounded=0;entryX=0;entryY=0.5;entryDx=0;entryDy=0;exitX=1.024;exitY=0.392;exitDx=0;exitDy=0;exitPerimeter=0;" parent="1" edge="1">
          <mxGeometry width="50" height="50" relative="1" as="geometry">
            <mxPoint x="760" y="834.29" as="sourcePoint" />
            <mxPoint x="876" y="834.29" as="targetPoint" />
          </mxGeometry>
        </mxCell>
        <mxCell id="lu4KbBznK7z5Fi6A6N9O-3" value="Manette PS4" style="whiteSpace=wrap;strokeWidth=2;" vertex="1" parent="1">
          <mxGeometry x="880" y="200" width="160" height="50" as="geometry" />
        </mxCell>
        <mxCell id="lu4KbBznK7z5Fi6A6N9O-4" value="Manette adaptée à chaque handicap " style="whiteSpace=wrap;strokeWidth=2;" vertex="1" parent="1">
          <mxGeometry x="880" y="270" width="160" height="50" as="geometry" />
        </mxCell>
        <mxCell id="lu4KbBznK7z5Fi6A6N9O-5" value="" style="edgeStyle=elbowEdgeStyle;elbow=horizontal;endArrow=classic;html=1;curved=0;rounded=0;endSize=8;startSize=8;entryX=0;entryY=0.5;entryDx=0;entryDy=0;exitX=1;exitY=0.5;exitDx=0;exitDy=0;" edge="1" parent="1" source="4O0FOi0MMqLt7hbfBtKS-23" target="lu4KbBznK7z5Fi6A6N9O-3">
          <mxGeometry width="50" height="50" relative="1" as="geometry">
            <mxPoint x="540" y="340" as="sourcePoint" />
            <mxPoint x="590" y="290" as="targetPoint" />
          </mxGeometry>
        </mxCell>
        <mxCell id="lu4KbBznK7z5Fi6A6N9O-7" value="" style="edgeStyle=elbowEdgeStyle;elbow=horizontal;endArrow=classic;html=1;curved=0;rounded=0;endSize=8;startSize=8;entryX=0;entryY=0.5;entryDx=0;entryDy=0;exitX=1;exitY=0.5;exitDx=0;exitDy=0;" edge="1" parent="1" source="4O0FOi0MMqLt7hbfBtKS-23" target="lu4KbBznK7z5Fi6A6N9O-4">
          <mxGeometry width="50" height="50" relative="1" as="geometry">
            <mxPoint x="770" y="265" as="sourcePoint" />
            <mxPoint x="890" y="235" as="targetPoint" />
          </mxGeometry>
        </mxCell>
      </root>
    </mxGraphModel>
  </diagram>
</mxfile>
